<svg width="200" height="200" viewBox="0 0 200 200" fill="none" xmlns="http://www.w3.org/2000/svg">
  <!-- Background Circle -->
  <circle cx="100" cy="100" r="95" fill="url(#gradient-bg)"/>
  
  <!-- Shield Shape -->
  <path d="M100 20C100 20 160 35 160 45V95C160 140 100 175 100 175C100 175 40 140 40 95V45C40 35 100 20 100 20Z" fill="white" fill-opacity="0.95"/>
  
  <!-- Inner Shield Gradient -->
  <path d="M100 30C100 30 150 42 150 50V92C150 130 100 160 100 160C100 160 50 130 50 92V50C50 42 100 30 100 30Z" fill="url(#gradient-inner)"/>
  
  <!-- Checkmark -->
  <path d="M75 100L92 117L125 80" stroke="white" stroke-width="10" stroke-linecap="round" stroke-linejoin="round"/>
  
  <!-- User Icon (Author representation) -->
  <circle cx="100" cy="58" r="12" fill="white" fill-opacity="0.3"/>
  <path d="M85 78C85 78 88 68 100 68C112 68 115 78 115 78" stroke="white" stroke-opacity="0.3" stroke-width="4" stroke-linecap="round"/>
  
  <!-- Decorative Dots -->
  <circle cx="100" cy="145" r="4" fill="white" fill-opacity="0.6"/>
  <circle cx="85" cy="138" r="3" fill="white" fill-opacity="0.4"/>
  <circle cx="115" cy="138" r="3" fill="white" fill-opacity="0.4"/>
  
  <!-- Definitions -->
  <defs>
    <linearGradient id="gradient-bg" x1="0" y1="0" x2="200" y2="200" gradientUnits="userSpaceOnUse">
      <stop offset="0%" stop-color="#6366f1"/>
      <stop offset="100%" stop-color="#8b5cf6"/>
    </linearGradient>
    <linearGradient id="gradient-inner" x1="50" y1="30" x2="150" y2="160" gradientUnits="userSpaceOnUse">
      <stop offset="0%" stop-color="#4f46e5"/>
      <stop offset="100%" stop-color="#7c3aed"/>
    </linearGradient>
  </defs>
</svg>
